<svg width="689" height="8" viewBox="0 0 689 8" fill="none" xmlns="http://www.w3.org/2000/svg">
<path d="M2 6.31078C13.4979 6.31078 24.7689 3.25753 36.2447 2.75858C45.1526 2.37128 61.8584 2 70.8242 2C110.151 2 137.997 2.00001 177.324 2.00001C193.17 2.00001 194.824 2.00024 212.824 2.00001C222.324 2.00025 234.324 2.00001 243.324 2.00025C252.324 2.00049 259.617 2.00025 266.299 2.00025C297.125 2.00025 328.049 2.00025 358.936 2.00025C382.109 2.00025 405.337 2.71867 428.543 2.71867C445.37 2.71867 462.205 2.58618 479.032 2.71867C495.597 2.84911 512.732 2.76445 529.241 3.7963C581.885 7.08655 634.691 4.87393 687.374 4.87393" stroke="#ABA7E4" stroke-width="3" stroke-linecap="round"/>
</svg>
